{"asset":{"version":"2.0","generator":"Blockbench 5.1.3 glTF exporter"},"scenes":[{"nodes":[5],"name":"blockbench_export"}],"scene":0,"nodes":[{"translation":[-0.5,0,0.09375],"name":"mesh","mesh":0},{"name":"bg","children":[0]},{"translation":[-0.03125,0.4375,0],"name":"mesh","mesh":1},{"translation":[-0.78125,0.375,-0.125],"name":"mesh","mesh":2},{"translation":[-0.03125,0,0],"name":"door","children":[2,3]},{"translation":[0.5,0,0],"name":"root","children":[1,4]}],"bufferViews":[{"buffer":0,"byteOffset":0,"byteLength":864,"target":34962,"byteStride":12},{"buffer":0,"byteOffset":864,"byteLength":864,"target":34962,"byteStride":12},{"buffer":0,"byteOffset":1728,"byteLength":576,"target":34962,"byteStride":8},{"buffer":0,"byteOffset":2304,"byteLength":216,"target":34963},{"buffer":0,"byteOffset":2520,"byteLength":2448,"target":34962,"byteStride":12},{"buffer":0,"byteOffset":4968,"byteLength":2448,"target":34962,"byteStride":12},{"buffer":0,"byteOffset":7416,"byteLength":1632,"target":34962,"byteStride":8},{"buffer":0,"byteOffset":9048,"byteLength":612,"target":34963},{"buffer":0,"byteOffset":9660,"byteLength":960,"target":34962,"byteStride":12},{"buffer":0,"byteOffset":10620,"byteLength":960,"target":34962,"byteStride":12},{"buffer":0,"byteOffset":11580,"byteLength":640,"target":34962,"byteStride":8},{"buffer":0,"byteOffset":12220,"byteLength":240,"target":34963},{"buffer":0,"byteOffset":12460,"byteLength":8},{"buffer":0,"byteOffset":12468,"byteLength":32},{"buffer":0,"byteOffset":12500,"byteLength":4},{"buffer":0,"byteOffset":12504,"byteLength":16},{"buffer":0,"byteOffset":12520,"byteLength":4},{"buffer":0,"byteOffset":12524,"byteLength":12},{"buffer":0,"byteOffset":12536,"byteLength":4},{"buffer":0,"byteOffset":12540,"byteLength":12}],"buffers":[{"byteLength":12552,"uri":"data:application/octet-stream;base64,"}],"accessors":[{"bufferView":0,"componentType":5126,"count":72,"max":[0.4375,0.9375,0.03125],"min":[-0.4375,0,-0.03125],"type":"VEC3"},{"bufferView":1,"componentType":5126,"count":72,"max":[1,1,1],"min":[-1,-1,-1],"type":"VEC3"},{"bufferView":2,"componentType":5126,"count":72,"max":[1.125,1.25],"min":[0,0],"type":"VEC2"},{"bufferView":3,"componentType":5123,"count":108,"max":[71],"min":[0],"type":"SCALAR"},{"bufferView":4,"componentType":5126,"count":204,"max":[0,0.5,0.0625],"min":[-0.875,-0.4375,-0.0625],"type":"VEC3"},{"bufferView":5,"componentType":5126,"count":204,"max":[1,1,1],"min":[-1,-1,-1],"type":"VEC3"},{"bufferView":6,"componentType":5126,"count":204,"max":[0.9375,1],"min":[0.0625,0.0625],"type":"VEC2"},{"bufferView":7,"componentType":5123,"count":306,"max":[203],"min":[0],"type":"SCALAR"},{"bufferView":8,"componentType":5126,"count":80,"max":[0.125,0.125,0.0625],"min":[-0.125,-0.125,0],"type":"VEC3"},{"bufferView":9,"componentType":5126,"count":80,"max":[1,1,1],"min":[-1,-1,-1],"type":"VEC3"},{"bufferView":10,"componentType":5126,"count":80,"max":[0.9375,0.75],"min":[0,0],"type":"VEC2"},{"bufferView":11,"componentType":5123,"count":120,"max":[79],"min":[0],"type":"SCALAR"},{"bufferView":12,"componentType":5126,"count":2,"max":[1],"min":[0],"type":"SCALAR"},{"bufferView":13,"componentType":5126,"count":2,"max":[0,0,0,1],"min":[0,-0.7933533191680908,0,0.6087614297866821],"type":"VEC4"},{"bufferView":14,"componentType":5126,"count":1,"max":[0],"min":[0],"type":"SCALAR"},{"bufferView":15,"componentType":5126,"count":1,"max":[0,0,0,1],"min":[0,0,0,1],"type":"VEC4"},{"bufferView":16,"componentType":5126,"count":1,"max":[0],"min":[0],"type":"SCALAR"},{"bufferView":17,"componentType":5126,"count":1,"max":[-0.03125,0,0],"min":[-0.03125,0,0],"type":"VEC3"},{"bufferView":18,"componentType":5126,"count":1,"max":[0],"min":[0],"type":"SCALAR"},{"bufferView":19,"componentType":5126,"count":1,"max":[1,1,1],"min":[1,1,1],"type":"VEC3"}],"materials":[{"pbrMetallicRoughness":{"metallicFactor":0,"roughnessFactor":1,"baseColorTexture":{"index":0}},"alphaMode":"MASK","alphaCutoff":0.05,"doubleSided":true},{"pbrMetallicRoughness":{"metallicFactor":0,"roughnessFactor":1,"baseColorTexture":{"index":1}},"alphaMode":"MASK","alphaCutoff":0.05,"doubleSided":true}],"textures":[{"sampler":0,"source":0},{"sampler":1,"source":1,"name":"Sprite-0001.png"}],"samplers":[{"magFilter":9728,"minFilter":9728,"wrapS":33071,"wrapT":33071},{"magFilter":9728,"minFilter":9728,"wrapS":33071,"wrapT":33071}],"images":[{"mimeType":"image/png","uri":"data:image/png;base64,"},{"mimeType":"image/png","uri":"data:image/png;base64,"}],"meshes":[{"primitives":[{"mode":4,"attributes":{"POSITION":0,"NORMAL":1,"TEXCOORD_0":2},"indices":3,"material":0}]},{"primitives":[{"mode":4,"attributes":{"POSITION":4,"NORMAL":5,"TEXCOORD_0":6},"indices":7,"material":1}]},{"primitives":[{"mode":4,"attributes":{"POSITION":8,"NORMAL":9,"TEXCOORD_0":10},"indices":11,"material":1}]}],"animations":[{"name":"open","samplers":[{"input":12,"output":13,"interpolation":"LINEAR"}],"channels":[{"sampler":0,"target":{"node":4,"path":"rotation"}}]},{"name":"RESET","samplers":[{"input":14,"output":15,"interpolation":"LINEAR"},{"input":16,"output":17,"interpolation":"LINEAR"},{"input":18,"output":19,"interpolation":"LINEAR"}],"channels":[{"sampler":0,"target":{"node":4,"path":"rotation"}},{"sampler":1,"target":{"node":4,"path":"translation"}},{"sampler":2,"target":{"node":4,"path":"scale"}}]}]}